<svg width="100%" viewBox="0 0 680 220" role="img" xmlns="http://www.w3.org/2000/svg">
  <title>Gary Hoare — GitHub profile header</title>
  <desc>Colourful animated particle web header for Gary Hoare</desc>
  <defs>
    <style>
      @import url('https://fonts.googleapis.com/css2?family=Roboto:wght@400;700&display=swap');

      @media (prefers-color-scheme: dark) {
        .bg { fill: #000000; }
        .name-text { fill: #ffffff; }
        .sub-text { fill: #999999; }
      }
      @media (prefers-color-scheme: light) {
        .bg { fill: #ffffff; }
        .name-text { fill: #111111; }
        .sub-text { fill: #666666; }
      }

      @keyframes a1{0%,100%{transform:translate(0,0)}25%{transform:translate(14px,-11px)}50%{transform:translate(-9px,17px)}75%{transform:translate(19px,7px)}}
      @keyframes a2{0%,100%{transform:translate(0,0)}25%{transform:translate(-13px,15px)}50%{transform:translate(21px,-9px)}75%{transform:translate(-7px,19px)}}
      @keyframes a3{0%,100%{transform:translate(0,0)}25%{transform:translate(11px,19px)}50%{transform:translate(-17px,-7px)}75%{transform:translate(13px,-15px)}}
      @keyframes a4{0%,100%{transform:translate(0,0)}25%{transform:translate(-19px,-9px)}50%{transform:translate(9px,15px)}75%{transform:translate(-15px,11px)}}
      @keyframes a5{0%,100%{transform:translate(0,0)}25%{transform:translate(17px,13px)}50%{transform:translate(-11px,-19px)}75%{transform:translate(7px,17px)}}
      @keyframes a6{0%,100%{transform:translate(0,0)}25%{transform:translate(-9px,21px)}50%{transform:translate(19px,-11px)}75%{transform:translate(-21px,7px)}}
      @keyframes a7{0%,100%{transform:translate(0,0)}25%{transform:translate(12px,-18px)}50%{transform:translate(-20px,10px)}75%{transform:translate(16px,-6px)}}
      @keyframes a8{0%,100%{transform:translate(0,0)}25%{transform:translate(-16px,8px)}50%{transform:translate(14px,-20px)}75%{transform:translate(-10px,14px)}}

      .q1{animation:a1 18s ease-in-out infinite}
      .q2{animation:a2 22s ease-in-out infinite;animation-delay:-4s}
      .q3{animation:a3 16s ease-in-out infinite;animation-delay:-8s}
      .q4{animation:a4 20s ease-in-out infinite;animation-delay:-2s}
      .q5{animation:a5 24s ease-in-out infinite;animation-delay:-6s}
      .q6{animation:a6 19s ease-in-out infinite;animation-delay:-10s}
      .q7{animation:a7 21s ease-in-out infinite;animation-delay:-3s}
      .q8{animation:a8 17s ease-in-out infinite;animation-delay:-7s}
      .q9{animation:a1 23s ease-in-out infinite;animation-delay:-1s}
      .q10{animation:a2 25s ease-in-out infinite;animation-delay:-5s}
      .q11{animation:a3 15s ease-in-out infinite;animation-delay:-9s}
      .q12{animation:a4 20s ease-in-out infinite;animation-delay:-11s}
      .q13{animation:a5 18s ease-in-out infinite;animation-delay:-13s}
      .q14{animation:a6 22s ease-in-out infinite;animation-delay:-14s}
      .q15{animation:a7 16s ease-in-out infinite;animation-delay:-12s}
      .q16{animation:a8 21s ease-in-out infinite;animation-delay:-15s}
      .q17{animation:a1 19s ease-in-out infinite;animation-delay:-16s}
      .q18{animation:a2 17s ease-in-out infinite;animation-delay:-17s}
      .q19{animation:a3 24s ease-in-out infinite;animation-delay:-18s}
      .q20{animation:a4 22s ease-in-out infinite;animation-delay:-19s}
      .q21{animation:a5 20s ease-in-out infinite;animation-delay:-20s}
      .q22{animation:a6 18s ease-in-out infinite;animation-delay:-21s}
      .q23{animation:a7 23s ease-in-out infinite;animation-delay:-22s}
      .q24{animation:a8 15s ease-in-out infinite;animation-delay:-23s}
      .q25{animation:a1 25s ease-in-out infinite;animation-delay:-24s}
      .q26{animation:a2 19s ease-in-out infinite;animation-delay:-2.5s}
      .q27{animation:a3 21s ease-in-out infinite;animation-delay:-6.5s}
      .q28{animation:a4 17s ease-in-out infinite;animation-delay:-10.5s}

      @keyframes lp{0%,100%{opacity:0.10}50%{opacity:0.26}}
      .ln{stroke-width:0.5;fill:none;animation:lp ease-in-out infinite}
      .l1{animation-duration:4s}.l2{animation-duration:5s;animation-delay:-2s}
      .l3{animation-duration:6s;animation-delay:-1s}.l4{animation-duration:4.5s;animation-delay:-3s}
      .l5{animation-duration:5.5s;animation-delay:-0.5s}.l6{animation-duration:3.5s;animation-delay:-2.5s}
      .l7{animation-duration:7s;animation-delay:-3.5s}.l8{animation-duration:4s;animation-delay:-1.5s}

      .name-text{font-family:'Roboto',sans-serif;font-size:32px;font-weight:700;letter-spacing:6px;animation:fi 2s ease-out both}
      .sub-text{font-family:'Roboto',sans-serif;font-size:11px;font-weight:400;letter-spacing:4px;animation:fi 2.6s ease-out both}
      @keyframes fi{from{opacity:0}to{opacity:1}}
    </style>
  </defs>

  <rect class="bg" width="680" height="220" rx="0"/>

  <!-- Lines -->
  <line class="ln l1" x1="40" y1="30" x2="150" y2="70" stroke="#378ADD"/>
  <line class="ln l2" x1="150" y1="70" x2="280" y2="45" stroke="#7F77DD"/>
  <line class="ln l3" x1="280" y1="45" x2="420" y2="60" stroke="#1D9E75"/>
  <line class="ln l4" x1="420" y1="60" x2="560" y2="30" stroke="#D85A30"/>
  <line class="ln l5" x1="560" y1="30" x2="650" y2="70" stroke="#D4537E"/>
  <line class="ln l6" x1="40" y1="30" x2="80" y2="130" stroke="#BA7517"/>
  <line class="ln l7" x1="150" y1="70" x2="200" y2="160" stroke="#378ADD"/>
  <line class="ln l8" x1="280" y1="45" x2="320" y2="145" stroke="#7F77DD"/>
  <line class="ln l1" x1="420" y1="60" x2="460" y2="155" stroke="#1D9E75"/>
  <line class="ln l2" x1="560" y1="30" x2="600" y2="140" stroke="#E24B4A"/>
  <line class="ln l3" x1="650" y1="70" x2="650" y2="170" stroke="#D4537E"/>
  <line class="ln l4" x1="80" y1="130" x2="200" y2="160" stroke="#D85A30"/>
  <line class="ln l5" x1="200" y1="160" x2="320" y2="145" stroke="#BA7517"/>
  <line class="ln l6" x1="320" y1="145" x2="460" y2="155" stroke="#7F77DD"/>
  <line class="ln l7" x1="460" y1="155" x2="600" y2="140" stroke="#1D9E75"/>
  <line class="ln l8" x1="600" y1="140" x2="650" y2="170" stroke="#E24B4A"/>
  <line class="ln l1" x1="30" y1="170" x2="80" y2="130" stroke="#639922"/>
  <line class="ln l2" x1="30" y1="170" x2="40" y2="30" stroke="#639922"/>
  <line class="ln l3" x1="110" y1="195" x2="200" y2="160" stroke="#D4537E"/>
  <line class="ln l4" x1="110" y1="195" x2="80" y2="130" stroke="#378ADD"/>
  <line class="ln l5" x1="370" y1="200" x2="320" y2="145" stroke="#BA7517"/>
  <line class="ln l6" x1="370" y1="200" x2="460" y2="155" stroke="#E24B4A"/>
  <line class="ln l7" x1="540" y1="195" x2="600" y2="140" stroke="#1D9E75"/>
  <line class="ln l8" x1="540" y1="195" x2="650" y2="170" stroke="#D4537E"/>
  <line class="ln l3" x1="150" y1="70" x2="320" y2="145" stroke="#639922"/>
  <line class="ln l1" x1="280" y1="45" x2="460" y2="155" stroke="#378ADD"/>
  <line class="ln l5" x1="420" y1="60" x2="600" y2="140" stroke="#7F77DD"/>
  <line class="ln l2" x1="80" y1="130" x2="320" y2="145" stroke="#D85A30"/>
  <line class="ln l6" x1="200" y1="160" x2="460" y2="155" stroke="#BA7517"/>
  <line class="ln l4" x1="560" y1="30" x2="460" y2="155" stroke="#E24B4A"/>
  <line class="ln l7" x1="40" y1="30" x2="280" y2="45" stroke="#D4537E"/>
  <line class="ln l8" x1="150" y1="70" x2="420" y2="60" stroke="#1D9E75"/>
  <line class="ln l1" x1="320" y1="145" x2="600" y2="140" stroke="#639922"/>
  <line class="ln l3" x1="200" y1="160" x2="370" y2="200" stroke="#7F77DD"/>
  <line class="ln l5" x1="100" y1="45" x2="150" y2="70" stroke="#D4537E"/>
  <line class="ln l2" x1="100" y1="45" x2="40" y2="30" stroke="#378ADD"/>
  <line class="ln l4" x1="490" y1="30" x2="420" y2="60" stroke="#1D9E75"/>
  <line class="ln l6" x1="490" y1="30" x2="560" y2="30" stroke="#639922"/>
  <line class="ln l8" x1="240" y1="110" x2="150" y2="70" stroke="#BA7517"/>
  <line class="ln l1" x1="240" y1="110" x2="320" y2="145" stroke="#D85A30"/>
  <line class="ln l3" x1="240" y1="110" x2="280" y2="45" stroke="#7F77DD"/>
  <line class="ln l7" x1="510" y1="100" x2="420" y2="60" stroke="#378ADD"/>
  <line class="ln l5" x1="510" y1="100" x2="600" y2="140" stroke="#D4537E"/>
  <line class="ln l2" x1="510" y1="100" x2="460" y2="155" stroke="#E24B4A"/>

  <!-- Particles -->
  <g class="q1"><circle cx="40" cy="30" r="3" fill="#378ADD"/></g>
  <g class="q5"><circle cx="150" cy="70" r="2.5" fill="#185FA5"/></g>
  <g class="q12"><circle cx="100" cy="45" r="2" fill="#378ADD"/></g>
  <g class="q18"><circle cx="650" cy="70" r="2.5" fill="#378ADD"/></g>
  <g class="q2"><circle cx="280" cy="45" r="3" fill="#7F77DD"/></g>
  <g class="q9"><circle cx="320" cy="145" r="2.5" fill="#534AB7"/></g>
  <g class="q20"><circle cx="130" cy="105" r="2" fill="#7F77DD"/></g>
  <g class="q26"><circle cx="430" cy="110" r="2" fill="#7F77DD"/></g>
  <g class="q3"><circle cx="420" cy="60" r="3" fill="#1D9E75"/></g>
  <g class="q10"><circle cx="460" cy="155" r="2.5" fill="#0F6E56"/></g>
  <g class="q15"><circle cx="490" cy="30" r="2" fill="#1D9E75"/></g>
  <g class="q22"><circle cx="540" cy="195" r="2.5" fill="#1D9E75"/></g>
  <g class="q4"><circle cx="560" cy="30" r="3" fill="#D85A30"/></g>
  <g class="q11"><circle cx="80" cy="130" r="2.5" fill="#993C1D"/></g>
  <g class="q19"><circle cx="200" cy="160" r="3" fill="#D85A30"/></g>
  <g class="q27"><circle cx="30" cy="170" r="2" fill="#D85A30"/></g>
  <g class="q6"><circle cx="600" cy="140" r="2.5" fill="#BA7517"/></g>
  <g class="q13"><circle cx="370" cy="200" r="2.5" fill="#854F0B"/></g>
  <g class="q21"><circle cx="110" cy="195" r="2" fill="#BA7517"/></g>
  <g class="q7"><circle cx="650" cy="170" r="2.5" fill="#D4537E"/></g>
  <g class="q14"><circle cx="25" cy="90" r="2" fill="#D4537E"/></g>
  <g class="q23"><circle cx="655" cy="110" r="2" fill="#993556"/></g>
  <g class="q8"><circle cx="240" cy="110" r="2.5" fill="#639922"/></g>
  <g class="q16"><circle cx="510" cy="100" r="2" fill="#3B6D11"/></g>
  <g class="q24"><circle cx="350" cy="30" r="2" fill="#639922"/></g>
  <g class="q17"><circle cx="660" cy="40" r="2" fill="#E24B4A"/></g>
  <g class="q25"><circle cx="20" cy="45" r="2" fill="#E24B4A"/></g>
  <g class="q28"><circle cx="580" cy="75" r="2" fill="#7F77DD"/></g>

  <!-- Text -->
  <text x="340" y="112" text-anchor="middle" class="name-text">GARY HOARE</text>
  <text x="340" y="136" text-anchor="middle" class="sub-text">WEB DEVELOPER</text>
</svg>
